<svg version="1.1" id="Layer_1" xmlns="http://www.w3.org/2000/svg" xmlns:xlink="http://www.w3.org/1999/xlink" x="0px" y="0px"
	 width="100%" viewBox="0 0 304 341" enable-background="new 0 0 304 341" xml:space="preserve">
<path fill="#00000000" opacity="1.000000" stroke="none" 
	d="
M24.999998,342.000000 
	C17.003477,342.000000 9.006956,342.000000 1.007826,342.000000 
	C1.005217,228.386230 1.005217,114.772461 1.005217,1.079343 
	C102.236320,1.079343 203.472733,1.079343 305.000000,1.079343 
	C305.000000,113.020729 305.000000,225.041702 304.632507,337.460815 
	C301.608368,336.911652 298.948364,335.973450 296.295532,335.015533 
	C280.567078,329.336121 264.840271,323.652161 249.013794,317.622131 
	C245.978928,311.300476 243.000519,305.346954 240.117203,299.347717 
	C235.475281,289.689423 228.693222,283.125031 217.227905,283.003418 
	C213.561981,282.964508 212.422195,280.775482 212.721115,277.346497 
	C213.514145,268.249146 214.094742,259.238098 218.791550,250.895355 
	C220.823914,247.285339 220.723099,242.532608 222.104401,238.473587 
	C222.809235,236.402374 224.470078,234.551544 226.012604,232.892944 
	C228.891266,229.797684 232.941559,227.415787 234.833969,223.850479 
	C240.411285,213.342804 243.230637,201.920456 244.171997,189.989136 
	C244.361450,187.587814 246.412231,185.285767 247.764069,183.033524 
	C250.710831,178.124039 253.999603,173.399353 256.612335,168.323120 
	C257.337433,166.914337 256.210144,164.532257 255.882553,162.605240 
	C254.922562,156.958206 253.204330,151.324738 253.132797,145.668869 
	C253.023911,137.059921 251.431183,128.969971 247.481171,121.424545 
	C246.216934,119.009575 244.228088,116.629196 241.972549,115.137711 
	C232.329926,108.761452 222.192749,103.061646 214.766785,93.670753 
	C216.250031,97.169106 218.081223,100.512131 220.824615,102.723480 
	C226.362198,107.187111 232.407944,111.018250 238.220245,115.143860 
	C242.549820,118.217041 245.643692,122.196808 248.089767,128.095444 
	C238.495743,121.098518 229.951263,114.867004 221.327240,108.551346 
	C221.049789,108.547112 220.851837,108.627029 220.653885,108.706940 
	C220.741898,108.824760 220.829895,108.942589 221.024994,109.383408 
	C223.083633,111.468094 224.954758,113.330093 227.002441,114.971848 
	C232.192398,119.132935 237.631241,122.999611 242.649994,127.353531 
	C247.411911,131.484634 250.762863,136.534378 250.599518,144.379608 
	C240.941727,135.419617 232.174469,127.285805 222.343033,118.164696 
	C224.825531,121.343163 226.307297,123.629715 228.166992,125.550301 
	C234.402206,131.989639 241.042099,138.059265 246.978073,144.756973 
	C249.988434,148.153671 252.640381,152.358017 251.151077,158.656113 
	C249.035080,156.975784 247.425064,156.103409 246.367538,154.787140 
	C241.795807,149.096909 237.425537,143.245438 232.905640,137.512802 
	C228.373093,131.764130 222.701462,126.626030 219.421539,120.247246 
	C214.925110,111.502625 212.213348,101.840347 208.462631,91.840515 
	C210.407593,92.177795 211.256287,92.324966 212.519043,92.543945 
	C211.443436,87.781654 210.738129,83.184120 209.325638,78.815224 
	C207.881790,74.349327 205.744232,70.107704 203.961945,65.889984 
	C209.173203,67.101883 215.786728,74.303070 215.704880,80.596504 
	C215.629044,86.426888 218.578339,88.984146 223.072388,91.045837 
	C228.633896,93.597229 232.754761,97.393349 234.143845,103.677971 
	C234.411926,104.890877 235.448013,105.934021 236.129822,107.055473 
	C236.733887,106.728111 237.337967,106.400742 237.942047,106.073372 
	C235.823425,101.916763 233.728882,97.747650 231.577377,93.608131 
	C230.239960,91.034935 228.286545,88.655212 227.522537,85.932480 
	C224.100616,73.737625 214.783188,67.343605 204.024994,63.490959 
	C194.282501,60.002052 183.004486,62.158329 173.616028,56.355511 
	C172.856003,55.885750 171.657791,56.130554 170.664307,56.032013 
	C162.123032,55.184834 153.564102,54.482975 145.045105,53.451485 
	C132.167648,51.892273 120.632919,54.800983 110.468010,62.995686 
	C106.458076,66.228401 102.356186,68.474907 96.697685,69.019005 
	C92.188866,69.452553 87.900078,73.139503 82.990273,74.006157 
	C83.004852,73.993195 83.033867,73.966461 82.717209,73.892097 
	C80.876114,73.668823 79.351677,73.519905 77.221695,73.311844 
	C78.117043,76.117981 78.787903,78.220551 79.365379,80.030411 
	C75.453712,81.960823 71.797371,83.558601 68.377464,85.560326 
	C67.108643,86.302986 65.314888,88.719009 65.596367,89.137688 
	C68.077202,92.827759 64.386368,94.655510 63.702240,97.341286 
	C62.724789,101.178596 62.722393,105.372993 62.955395,109.376961 
	C63.156975,112.840889 64.267075,116.251953 64.960144,119.611595 
	C61.425861,119.611595 59.268848,119.611595 57.111832,119.611595 
	C58.039398,121.742119 58.720074,124.029274 59.950062,125.967926 
	C62.001740,129.201660 59.488960,130.247040 57.688782,131.909882 
	C56.351242,133.145370 54.262619,134.941422 54.454662,136.187988 
	C54.930588,139.277237 54.784584,141.457718 52.007778,143.425125 
	C51.169239,144.019257 51.348339,146.175079 51.231651,147.629196 
	C51.101555,149.250519 51.587990,151.038742 51.068150,152.489990 
	C49.300266,157.425446 51.149643,161.247574 54.313511,164.761948 
	C56.809498,167.534454 59.392445,170.228668 62.119099,173.153214 
	C60.012642,174.754105 58.379784,175.995071 56.939587,177.089615 
	C57.993999,179.236603 58.772385,180.974548 59.682022,182.640854 
	C61.402790,185.792999 63.198948,188.903961 64.981209,192.014954 
	C64.998642,191.997879 65.033134,191.963318 64.716675,192.146362 
	C60.186371,198.611633 61.987907,204.891052 64.113876,211.341263 
	C65.747490,216.297653 66.946182,221.419846 68.001152,226.537796 
	C68.945877,231.120926 69.397346,235.722580 73.870506,238.666519 
	C75.087341,239.467346 76.010399,241.262253 76.349365,242.763275 
	C79.254700,255.628464 87.630730,265.571045 93.996025,276.605194 
	C95.701202,279.561096 96.217667,283.271454 96.943138,286.706573 
	C97.861763,291.056305 95.413963,293.454651 91.643181,295.037415 
	C90.640015,295.458466 89.814690,296.502502 89.116333,297.419403 
	C82.875496,305.613037 76.706795,313.861755 70.449013,322.042358 
	C69.384346,323.434174 68.224503,325.148926 66.722824,325.748993 
	C52.863556,331.286957 38.919441,336.612610 24.999998,342.000000 
z"/>
<path fill="#252528" opacity="1.000000" stroke="none" 
	d="
M221.406769,108.635483 
	C229.951263,114.867004 238.495743,121.098518 248.089767,128.095444 
	C245.643692,122.196808 242.549820,118.217041 238.220245,115.143860 
	C232.407944,111.018250 226.362198,107.187111 220.824615,102.723480 
	C218.081223,100.512131 216.250031,97.169106 214.766785,93.670753 
	C222.192749,103.061646 232.329926,108.761452 241.972549,115.137711 
	C244.228088,116.629196 246.216934,119.009575 247.481171,121.424545 
	C251.431183,128.969971 253.023911,137.059921 253.132797,145.668869 
	C253.204330,151.324738 254.922562,156.958206 255.882553,162.605240 
	C256.210144,164.532257 257.337433,166.914337 256.612335,168.323120 
	C253.999603,173.399353 250.710831,178.124039 247.764069,183.033524 
	C246.412231,185.285767 244.361450,187.587814 244.171997,189.989136 
	C243.230637,201.920456 240.411285,213.342804 234.833969,223.850479 
	C232.941559,227.415787 228.891266,229.797684 226.012604,232.892944 
	C224.470078,234.551544 222.809235,236.402374 222.104401,238.473587 
	C220.723099,242.532608 220.823914,247.285339 218.791550,250.895355 
	C214.094742,259.238098 213.514145,268.249146 212.721115,277.346497 
	C212.422195,280.775482 213.561981,282.964508 217.227905,283.003418 
	C228.693222,283.125031 235.475281,289.689423 240.117203,299.347717 
	C243.000519,305.346954 245.978928,311.300476 248.570282,317.685608 
	C247.930756,318.141083 247.635620,318.185516 247.091919,318.028137 
	C242.410217,309.841034 237.974091,301.857361 233.544846,293.869873 
	C230.087357,287.634766 224.249237,285.692444 217.687393,285.170746 
	C214.604355,284.925629 212.691269,286.112671 213.708130,289.575867 
	C214.966919,293.862915 216.186478,298.184967 217.857162,302.316345 
	C218.548431,304.025726 220.366028,305.279633 221.671387,306.740692 
	C222.228241,306.528168 222.785095,306.315643 223.341949,306.103088 
	C223.341949,301.079987 223.341949,296.056885 223.341949,291.033783 
	C223.983536,291.060730 224.625137,291.087708 225.266724,291.114685 
	C225.266724,295.371918 225.613556,299.663025 225.201752,303.880035 
	C223.959442,316.602142 222.422241,329.295471 221.000000,342.000000 
	C219.933334,342.000000 218.866653,342.000000 217.543640,341.652100 
	C218.517868,334.790070 219.676590,328.261353 220.999893,321.766174 
	C222.236069,315.698517 223.004501,309.867371 216.637314,305.884155 
	C216.020096,305.498047 215.753448,304.499329 215.401993,303.748474 
	C210.472855,293.218323 208.877899,282.197601 210.496246,270.686401 
	C210.682617,269.360718 210.521515,267.986237 210.521515,266.031708 
	C209.211365,266.804657 208.527359,267.012390 208.132904,267.469788 
	C200.227615,276.636902 192.154099,285.669525 184.539261,295.073212 
	C178.167389,302.941986 171.951920,310.740814 160.868027,311.713654 
	C157.389404,312.018951 153.835388,312.476196 150.401611,312.093933 
	C139.596725,310.891052 128.079285,311.741638 119.017471,304.230957 
	C112.219536,298.596619 106.058044,292.194397 100.540833,287.006348 
	C99.813988,295.524445 98.914886,305.064575 98.209106,314.619049 
	C97.533638,323.763153 94.029015,333.012329 99.000000,342.000000 
	C97.933327,342.000000 96.866661,342.000000 95.407402,341.588837 
	C93.312027,329.658020 90.119316,318.148682 93.783485,306.591949 
	C94.236618,306.587250 94.689751,306.582581 95.142883,306.577881 
	C95.142883,308.476044 95.142883,310.374207 95.142883,312.272339 
	C95.508537,312.269836 95.874199,312.267365 96.239853,312.264862 
	C96.239853,306.923187 96.239853,301.581512 96.239853,295.223175 
	C94.045250,296.656250 92.537918,297.201141 91.684479,298.268738 
	C85.893684,305.512482 79.835571,312.593719 74.668388,320.269073 
	C70.331230,326.711487 66.879395,333.817139 67.000000,342.000000 
	C66.250000,342.000000 65.500000,342.000000 64.431999,341.620300 
	C64.358368,338.771881 66.438477,334.249451 62.135422,335.031219 
	C55.874889,336.168549 50.024986,339.566132 43.999996,342.000000 
	C37.978848,342.000000 31.957697,342.000000 25.468269,342.000000 
	C38.919441,336.612610 52.863556,331.286957 66.722824,325.748993 
	C68.224503,325.148926 69.384346,323.434174 70.449013,322.042358 
	C76.706795,313.861755 82.875496,305.613037 89.116333,297.419403 
	C89.814690,296.502502 90.640015,295.458466 91.643181,295.037415 
	C95.413963,293.454651 97.861763,291.056305 96.943138,286.706573 
	C96.217667,283.271454 95.701202,279.561096 93.996025,276.605194 
	C87.630730,265.571045 79.254700,255.628464 76.349365,242.763275 
	C76.010399,241.262253 75.087341,239.467346 73.870506,238.666519 
	C69.397346,235.722580 68.945877,231.120926 68.001152,226.537796 
	C66.946182,221.419846 65.747490,216.297653 64.113876,211.341263 
	C61.987907,204.891052 60.186371,198.611633 64.698776,192.576248 
	C63.923183,199.527725 62.998661,206.206726 68.830338,212.873734 
	C70.003273,205.329712 71.032547,198.709671 72.289078,192.256912 
	C73.137360,195.248962 73.758377,198.073700 74.379402,200.898453 
	C75.558014,198.249908 76.032661,195.466919 75.806297,192.742157 
	C75.522530,189.326614 73.721375,189.482162 71.227097,191.664764 
	C68.865257,191.830414 66.914520,191.931229 64.963776,192.032043 
	C63.198948,188.903961 61.402790,185.792999 59.682022,182.640854 
	C58.772385,180.974548 57.993999,179.236603 56.939587,177.089615 
	C58.379784,175.995071 60.012642,174.754105 62.119099,173.153214 
	C59.392445,170.228668 56.809498,167.534454 54.313511,164.761948 
	C51.149643,161.247574 49.300266,157.425446 51.068150,152.489990 
	C51.587990,151.038742 51.101555,149.250519 51.231651,147.629196 
	C51.348339,146.175079 51.169239,144.019257 52.007778,143.425125 
	C54.784584,141.457718 54.930588,139.277237 54.454662,136.187988 
	C54.262619,134.941422 56.351242,133.145370 57.688782,131.909882 
	C59.488960,130.247040 62.001740,129.201660 59.950062,125.967926 
	C58.720074,124.029274 58.039398,121.742119 57.111832,119.611595 
	C59.268848,119.611595 61.425861,119.611595 64.960144,119.611595 
	C64.267075,116.251953 63.156975,112.840889 62.955395,109.376961 
	C62.722393,105.372993 62.724789,101.178596 63.702240,97.341286 
	C64.386368,94.655510 68.077202,92.827759 65.596367,89.137688 
	C65.314888,88.719009 67.108643,86.302986 68.377464,85.560326 
	C71.797371,83.558601 75.453712,81.960823 79.365379,80.030411 
	C78.787903,78.220551 78.117043,76.117981 77.221695,73.311844 
	C79.351677,73.519905 80.876114,73.668823 82.676437,74.206383 
	C81.776108,79.532501 84.877182,82.175636 91.917747,81.698608 
	C90.510490,77.039642 87.693398,74.500488 82.975693,74.019119 
	C87.900078,73.139503 92.188866,69.452553 96.697685,69.019005 
	C102.356186,68.474907 106.458076,66.228401 110.468010,62.995686 
	C120.632919,54.800983 132.167648,51.892273 145.045105,53.451485 
	C153.564102,54.482975 162.123032,55.184834 170.664307,56.032013 
	C171.657791,56.130554 172.856003,55.885750 173.616028,56.355511 
	C183.004486,62.158329 194.282501,60.002052 204.024994,63.490959 
	C214.783188,67.343605 224.100616,73.737625 227.522537,85.932480 
	C228.286545,88.655212 230.239960,91.034935 231.577377,93.608131 
	C233.728882,97.747650 235.823425,101.916763 237.942047,106.073372 
	C237.337967,106.400742 236.733887,106.728111 236.129822,107.055473 
	C235.448013,105.934021 234.411926,104.890877 234.143845,103.677971 
	C232.754761,97.393349 228.633896,93.597229 223.072388,91.045837 
	C218.578339,88.984146 215.629044,86.426888 215.704880,80.596504 
	C215.786728,74.303070 209.173203,67.101883 203.961945,65.889984 
	C205.744232,70.107704 207.881790,74.349327 209.325638,78.815224 
	C210.738129,83.184120 211.443436,87.781654 212.519043,92.543945 
	C211.256287,92.324966 210.407593,92.177795 208.462631,91.840515 
	C212.213348,101.840347 214.925110,111.502625 219.421539,120.247246 
	C222.701462,126.626030 228.373093,131.764130 232.905640,137.512802 
	C237.425537,143.245438 241.795807,149.096909 246.367538,154.787140 
	C247.425064,156.103409 249.035080,156.975784 251.151077,158.656113 
	C252.640381,152.358017 249.988434,148.153671 246.978073,144.756973 
	C241.042099,138.059265 234.402206,131.989639 228.166992,125.550301 
	C226.307297,123.629715 224.825531,121.343163 222.343033,118.164696 
	C232.174469,127.285805 240.941727,135.419617 250.599518,144.379608 
	C250.762863,136.534378 247.411911,131.484634 242.649994,127.353531 
	C237.631241,122.999611 232.192398,119.132935 227.002441,114.971848 
	C224.954758,113.330093 223.083633,111.468094 221.147766,109.277786 
	C221.163406,108.849190 221.406769,108.635483 221.406769,108.635483 
M60.894096,121.759590 
	C60.754501,121.727486 60.614906,121.695381 60.475315,121.663269 
	C60.529404,121.911697 60.583496,122.160126 60.924210,122.973785 
	C64.812737,127.148521 67.399048,127.581482 71.868896,124.809143 
	C68.265480,123.845154 64.662056,122.881165 60.894096,121.759590 
M218.242706,75.472183 
	C218.047012,75.551849 217.851303,75.631508 217.655609,75.711166 
	C217.743607,75.827187 217.831604,75.943214 218.030960,76.859879 
	C219.699341,81.156113 217.435257,87.643410 225.234833,89.198524 
	C224.527939,83.507042 222.485596,79.085205 218.242706,75.472183 
M123.126045,64.276634 
	C123.328026,64.467255 123.530006,64.657875 123.731995,64.848495 
	C123.757271,64.712128 123.843193,64.484642 123.797821,64.454445 
	C123.536797,64.280716 123.244675,64.153725 123.133942,63.339695 
	C127.204865,60.680855 131.275787,58.022015 136.002426,54.934910 
	C129.161804,55.594254 123.205551,57.062172 117.810936,60.486675 
	C111.210091,64.676895 104.644852,68.923225 97.833954,73.293037 
	C99.542053,77.859581 101.352951,78.181633 105.317978,73.533463 
	C105.888298,74.373642 106.437546,75.182777 107.315918,76.440247 
	C108.677963,77.223053 110.285828,78.918724 111.359238,78.629662 
	C115.857063,77.418472 120.194748,75.612579 124.591103,74.024536 
	C118.030113,71.715233 112.346985,73.117401 107.217987,75.441071 
	C110.438545,69.696060 118.884438,70.604889 121.611061,64.180122 
	C121.708488,63.950531 122.528839,64.027756 123.126045,64.276634 
M129.085556,62.177578 
	C138.166870,57.674519 146.785553,57.980915 155.587433,63.501835 
	C160.924698,66.849594 168.165665,67.127495 171.619232,73.576149 
	C171.797272,73.908630 172.501312,74.002350 172.981583,74.123566 
	C179.514175,75.772278 183.296585,80.273987 186.166458,86.097420 
	C187.727768,89.265564 190.210220,91.979752 192.277206,94.898689 
	C192.792587,94.556915 193.307968,94.215134 193.823349,93.873352 
	C192.652679,91.566681 191.825104,88.988220 190.250977,87.001167 
	C183.986649,79.093651 177.536896,71.330887 171.058746,63.595802 
	C167.784500,59.686279 163.888397,56.759644 158.573898,55.983185 
	C147.631561,54.384491 137.477234,56.533424 127.613434,62.072769 
	C127.516632,62.380131 127.419830,62.687492 127.323029,62.994858 
	C127.675018,62.790020 128.027008,62.585182 129.085556,62.177578 
M111.317993,233.211624 
	C110.572998,234.596695 109.338486,235.921799 109.160255,237.376328 
	C107.699966,249.293411 111.382217,259.776276 118.824074,268.939667 
	C124.764244,276.253998 126.440529,276.041260 131.053040,267.807129 
	C132.903290,264.504150 135.136002,263.361084 139.119400,263.600891 
	C145.199997,263.966919 151.347031,263.074554 157.467285,263.048218 
	C158.945419,263.041840 160.737762,264.027222 161.824310,265.116455 
	C162.930618,266.225494 163.251236,268.079041 164.079651,269.511932 
	C166.471542,273.649170 169.119034,274.219208 172.347717,270.883606 
	C174.741470,268.410583 176.862579,265.571533 178.625015,262.609833 
	C182.881729,255.456604 182.729843,247.416794 183.306625,239.405289 
	C183.672089,234.329315 182.067719,232.414627 177.479645,231.716110 
	C170.742905,230.690475 164.047638,229.395569 157.319351,228.310654 
	C143.567505,226.093201 129.846161,226.410522 116.252930,229.397675 
	C114.639870,229.752121 113.393600,231.775711 112.005157,232.997574 
	C112.005157,232.997574 112.034210,232.970596 111.317993,233.211624 
M82.354118,227.371841 
	C88.055695,236.642456 89.575417,237.319626 99.865776,234.996506 
	C97.820915,218.685257 109.145287,214.125977 121.824814,211.398682 
	C119.337219,201.268036 120.986946,197.651794 127.384834,198.005051 
	C121.346977,203.592331 121.877930,208.086197 128.094986,210.144363 
	C128.359512,208.468979 128.641800,206.681107 128.924088,204.893234 
	C130.858994,205.421127 132.808807,205.902512 134.716583,206.514938 
	C135.112183,206.641907 135.483078,207.207901 135.643097,207.651703 
	C137.660706,213.247223 141.731750,214.507950 147.187592,213.514603 
	C148.902008,213.202454 150.795868,214.045135 152.596054,213.988968 
	C154.525818,213.928741 156.823547,214.001328 158.291168,213.017349 
	C162.391815,210.268021 168.651917,209.217560 168.034149,201.744217 
	C168.936417,204.121582 169.442184,206.257843 168.824707,207.994812 
	C167.742249,211.039780 167.897415,212.815399 171.543610,213.148651 
	C172.693100,213.253708 173.808121,213.691193 174.955322,213.872772 
	C189.580215,216.187210 193.480820,220.160217 194.990509,234.795807 
	C195.354477,238.324158 197.960236,239.507355 200.322525,239.133316 
	C205.454468,238.320801 209.626694,236.582092 213.136902,231.340942 
	C216.106750,226.906616 216.625290,222.669159 217.577438,218.120819 
	C219.374069,209.538513 221.152954,200.950287 222.729385,192.326172 
	C223.004318,190.822128 222.337494,189.108459 221.950394,187.529694 
	C221.376694,185.189957 220.462662,182.917862 220.068604,180.554413 
	C219.688477,178.274536 220.376022,175.648102 219.485138,173.674774 
	C218.759552,172.067551 216.394745,171.200378 214.756821,170.005035 
	C213.849426,171.358551 212.499954,172.599442 212.120880,174.087524 
	C211.140701,177.935150 211.045441,182.046326 209.783554,185.777176 
	C205.280823,199.089569 195.067993,204.825272 182.371216,201.560333 
	C166.679382,197.525238 152.286469,180.669800 151.073456,164.484573 
	C150.770462,160.441833 149.066223,158.922638 145.242081,158.738251 
	C140.890182,158.528427 139.046997,160.179291 137.940414,164.651901 
	C133.949890,180.781082 126.265175,194.546066 109.583755,200.536438 
	C97.952667,204.713226 85.316177,201.878311 81.851463,187.900269 
	C80.626755,182.959305 79.469002,178.001740 78.014740,171.943970 
	C78.014740,185.478729 77.612000,197.906662 78.196213,210.288040 
	C78.461258,215.905380 80.683159,221.430389 81.781990,227.207291 
	C81.716888,227.457367 81.651794,227.707428 81.586700,227.957504 
	C81.711769,227.910950 81.938011,227.875763 81.944733,227.815903 
	C81.977028,227.528549 81.949989,227.234528 82.354118,227.371841 
M166.364471,143.318665 
	C172.474976,143.221619 179.093109,141.570786 184.585678,143.365219 
	C194.655975,146.655151 205.382736,149.993835 210.595016,161.081726 
	C211.159088,162.281631 214.015900,162.752548 215.839066,162.826614 
	C216.496368,162.853333 217.779922,160.757202 217.865341,159.564499 
	C219.040375,143.157257 216.720062,127.226303 209.268967,112.519699 
	C207.506363,109.040756 202.823318,105.085815 199.264755,104.864120 
	C190.875366,104.341484 183.940842,101.743835 177.216949,96.958595 
	C174.171051,94.790894 170.000671,93.988274 166.211456,93.147835 
	C163.170624,92.473396 161.468307,94.140808 160.753113,97.432640 
	C159.990387,100.943268 158.887589,104.597046 156.994675,107.595886 
	C153.901215,112.496651 146.437668,113.294945 143.183975,109.491844 
	C142.435699,108.617226 142.320663,107.200829 141.914215,106.033752 
	C142.900864,105.721268 144.007980,105.595604 144.847153,105.054428 
	C146.258362,104.144325 148.624756,102.952034 148.608002,101.910339 
	C148.549759,98.290993 147.639816,94.685349 147.053833,91.074486 
	C145.963379,91.331535 144.712326,91.332214 143.813538,91.895241 
	C141.420883,93.394028 139.175125,95.128319 136.879547,96.780907 
	C128.419235,102.871552 119.324097,102.732872 110.449669,98.446693 
	C102.105995,94.416862 92.879463,97.792862 90.066032,106.715797 
	C89.266541,109.251442 88.853333,112.113403 87.375969,114.196701 
	C79.439896,125.387703 81.021782,138.123016 81.023476,150.620331 
	C81.023689,152.187851 81.283066,153.755325 81.498497,156.179581 
	C90.306129,148.759659 100.021393,145.210175 110.137680,143.725830 
	C117.317398,142.672363 124.840034,143.817810 132.200256,144.174576 
	C138.560989,144.482895 144.914703,145.480698 151.259918,145.387146 
	C156.098923,145.315781 160.919785,144.013153 166.364471,143.318665 
M183.148544,198.499832 
	C191.739243,201.079285 199.331512,199.231323 204.269684,191.744873 
	C210.354324,182.520294 211.181778,172.162262 207.610748,161.677322 
	C206.079071,157.180145 202.675919,155.060013 197.750732,154.654449 
	C192.007294,154.181519 186.341049,152.837692 180.614456,152.072968 
	C175.726379,151.420227 170.758362,150.390411 165.899887,150.698196 
	C156.235153,151.310455 152.433044,155.471237 154.215057,163.833008 
	C157.656448,179.981232 165.814392,192.651825 183.148544,198.499832 
M84.518333,158.335953 
	C80.204063,168.364090 82.250504,178.203491 85.512383,187.955963 
	C88.814774,197.829514 97.352257,202.001404 107.328484,198.728363 
	C114.077934,196.513977 120.474663,193.522232 124.209709,187.151550 
	C128.214188,180.321274 132.453232,173.457458 135.166534,166.084457 
	C138.561020,156.860474 131.778320,149.991882 122.263145,151.901794 
	C119.347290,152.487061 116.316879,152.488647 113.388428,153.026886 
	C107.802032,154.053604 102.217262,155.133652 96.699005,156.469177 
	C93.632736,157.211273 91.245964,157.452271 91.119186,152.388947 
	C88.627350,154.554886 86.796242,156.146515 84.518333,158.335953 
M226.180283,212.226364 
	C222.497086,217.790573 223.402649,224.010757 222.913803,230.274673 
	C230.309906,228.788376 238.604416,214.961670 236.664154,208.663574 
	C235.805969,205.877884 235.404083,202.946075 234.875381,200.065857 
	C234.247330,196.644409 234.029465,193.101624 232.963684,189.829697 
	C232.550339,188.560699 230.244370,187.073563 228.910217,187.171997 
	C227.554199,187.272018 225.323395,189.124512 225.228180,190.346176 
	C224.818481,195.603165 225.053162,200.910400 225.053162,206.199326 
	C225.376999,206.231033 225.700836,206.262741 226.024673,206.294434 
	C226.455460,203.090836 226.886261,199.887253 227.388840,196.149765 
	C228.962402,201.942337 230.368103,207.116989 231.634476,211.778763 
	C230.517181,211.778763 228.593338,211.778763 226.180283,212.226364 
M109.573730,80.958900 
	C107.414330,80.831520 105.254921,80.704147 103.095520,80.576767 
	C103.092888,81.056587 103.090263,81.536407 103.087631,82.016228 
	C110.612251,86.195808 118.168350,88.021873 125.914711,80.357010 
	C126.546776,82.922043 126.943100,84.530388 127.414665,86.444107 
	C135.743011,82.071190 140.511826,75.096359 144.665863,67.274101 
	C139.875000,68.363075 135.000488,69.451897 130.142273,70.609177 
	C129.722092,70.709267 129.356094,71.220352 129.055176,71.610176 
	C124.336288,77.723267 117.553375,79.698242 109.573730,80.958900 
M168.197128,80.879066 
	C173.457779,80.814003 176.887421,83.399094 179.068497,88.086639 
	C180.535309,91.239075 182.218597,94.302361 183.977631,97.304413 
	C186.438461,101.504181 194.067947,103.600868 201.050079,100.615021 
	C198.733734,99.234734 197.259918,97.723259 195.597687,97.475403 
	C188.327179,96.391350 185.849808,90.955048 183.395111,85.155922 
	C181.405090,80.454521 172.157547,77.555519 167.478516,79.880859 
	C167.434769,79.902596 167.638382,80.422020 168.197128,80.879066 
M185.518112,76.009247 
	C187.991669,77.592804 190.465225,79.176353 192.938782,80.759911 
	C188.997345,66.926392 177.716553,56.870499 170.186310,59.340446 
	C175.205490,64.815376 180.108917,70.164024 185.518112,76.009247 
M74.420662,109.219093 
	C75.139114,106.516716 76.112984,103.846436 76.458519,101.097183 
	C76.610649,99.886757 75.549988,97.439316 74.928436,97.401802 
	C72.061020,97.228798 68.230934,96.645523 66.463806,98.183342 
	C63.286160,100.948624 63.213078,105.263992 65.700905,109.056694 
	C68.115570,112.737854 71.128540,110.770058 74.420662,109.219093 
M72.974915,155.221771 
	C80.180077,149.068649 77.387634,140.824249 77.673836,133.083679 
	C74.125008,135.964157 69.416565,137.709885 69.746254,143.439041 
	C69.920380,146.464874 70.088531,149.544479 69.715294,152.531815 
	C69.405945,155.007721 69.060440,156.727783 72.974915,155.221771 
M70.544289,135.066437 
	C72.865509,133.265320 75.186729,131.464188 77.507950,129.663071 
	C71.443336,131.292465 64.754066,127.882660 59.359592,133.578644 
	C56.861183,136.216721 56.995041,137.342834 58.604507,139.430069 
	C61.608353,143.325623 64.749535,143.192780 67.495422,139.229492 
	C68.340866,138.009216 69.207474,136.803604 70.544289,135.066437 
M147.635635,156.129013 
	C148.999573,155.503632 150.718048,155.168442 151.571793,154.125427 
	C151.973969,153.634109 150.945618,151.607315 150.163391,150.583496 
	C148.270569,148.106140 136.993042,146.771698 135.063110,148.874237 
	C134.472260,149.517929 134.545700,151.303772 134.979355,152.267624 
	C137.489395,157.846649 142.292542,156.748108 147.635635,156.129013 
M87.985435,92.027718 
	C85.341347,89.101357 83.182327,84.699394 79.927933,83.629593 
	C76.034874,82.349854 72.035316,85.443275 69.041687,88.868752 
	C74.833450,93.367645 80.999718,93.796455 87.985435,92.027718 
M60.816933,153.268860 
	C63.257477,151.334625 65.698021,149.400391 68.827293,146.920303 
	C65.071480,145.695877 61.623230,144.124512 58.015438,143.543030 
	C55.332249,143.110565 53.242805,144.397507 53.978565,148.051636 
	C54.372070,150.005920 53.742443,152.154633 53.664337,154.218979 
	C53.595039,156.050507 53.649807,157.886734 53.649807,160.076904 
	C56.252617,157.586655 58.265717,155.660614 60.816933,153.268860 
M222.859726,178.765808 
	C223.021988,181.431030 222.829956,184.149643 226.917084,184.057449 
	C230.438553,183.977997 233.359848,183.208862 233.869156,179.324402 
	C234.542847,174.186386 229.751099,175.143112 227.117584,174.020615 
	C223.371063,172.423737 221.743149,173.970764 222.859726,178.765808 
M205.577087,82.283615 
	C206.046631,82.880234 206.516159,83.476852 207.279694,84.447037 
	C206.997864,72.697670 200.738785,63.927353 193.445343,63.914124 
	C197.288300,69.750549 201.252747,75.771484 205.577087,82.283615 
M240.319473,180.500381 
	C240.319473,178.982422 240.319473,177.464462 240.319473,175.946487 
	C232.414322,183.105499 236.051529,190.920547 238.319473,198.672195 
	C238.915436,192.853989 239.511383,187.035767 240.319473,180.500381 
M70.615479,220.370529 
	C71.450203,232.077866 71.450203,232.077866 74.800537,234.531372 
	C74.166344,227.683716 77.606392,221.044861 73.250938,214.154190 
	C72.213913,216.605469 71.549126,218.176865 70.615479,220.370529 
M250.688278,161.942322 
	C249.223831,160.919266 247.759384,159.896210 246.294937,158.873154 
	C245.830460,159.229568 245.365997,159.585999 244.901520,159.942429 
	C246.252258,162.779022 247.375259,165.763901 249.074463,168.373611 
	C249.687637,169.315338 251.683670,169.356689 253.048645,169.808899 
	C253.411163,168.168793 254.190903,166.473801 253.984924,164.908508 
	C253.854431,163.916840 252.255554,163.118393 250.688278,161.942322 
M70.064613,113.659836 
	C67.065567,115.056061 66.299896,117.497337 67.850937,120.147057 
	C68.407013,121.097031 71.402466,121.881882 71.816071,121.421829 
	C73.200531,119.881935 74.486977,117.823067 74.762276,115.818893 
	C75.164413,112.891373 72.854225,112.916351 70.064613,113.659836 
M222.935440,139.601608 
	C222.459274,143.896988 221.983109,148.192368 221.417496,153.294739 
	C226.331406,142.722488 226.679337,133.967621 221.835678,127.975639 
	C222.265152,132.322205 222.580841,135.517075 222.935440,139.601608 
M244.363785,177.433365 
	C244.484192,178.582901 244.604599,179.732452 244.725006,180.881989 
	C245.673309,180.435211 246.899170,180.227814 247.524673,179.502625 
	C251.464142,174.935211 250.543152,172.509155 243.565613,169.498795 
	C243.908447,172.065674 244.224396,174.431213 244.363785,177.433365 
M190.638138,68.956589 
	C192.980637,72.466492 195.323151,75.976395 197.665649,79.486298 
	C196.997452,72.667351 194.159805,67.355209 187.835236,64.377525 
	C188.635452,65.717194 189.435654,67.056862 190.638138,68.956589 
M64.800751,331.868103 
	C65.275764,331.034393 65.750771,330.200684 66.225777,329.366974 
	C65.931053,329.007812 65.636330,328.648682 65.341606,328.289551 
	C59.863834,330.708862 54.386066,333.128174 48.908295,335.547485 
	C49.024796,335.876068 49.141293,336.204681 49.257793,336.533264 
	C54.242031,335.026611 59.226265,333.519989 64.800751,331.868103 
M165.793686,72.903458 
	C158.452530,68.026215 151.599487,67.871162 146.544724,73.406898 
	C153.077179,70.610825 158.659103,69.980751 163.959457,73.723465 
	C164.304245,73.966927 165.154053,73.495193 165.793686,72.903458 
M65.868996,189.174225 
	C67.646446,188.784363 69.958954,188.927567 71.039299,187.843201 
	C71.975815,186.903168 71.515823,184.571838 71.673065,182.855438 
	C71.318260,182.818848 70.963455,182.782257 70.608658,182.745682 
	C68.910400,184.796570 67.212151,186.847473 65.868996,189.174225 
M136.018463,66.103241 
	C137.060791,65.880508 138.103134,65.657776 139.145462,65.435043 
	C139.037552,65.099243 138.929642,64.763451 138.821732,64.427650 
	C137.915955,64.870445 137.010193,65.313240 136.018463,66.103241 
z"/>
<path fill="#00000000" opacity="1.000000" stroke="none" 
	d="
M99.468658,342.000000 
	C94.029015,333.012329 97.533638,323.763153 98.209106,314.619049 
	C98.914886,305.064575 99.813988,295.524445 100.540833,287.006348 
	C106.058044,292.194397 112.219536,298.596619 119.017471,304.230957 
	C128.079285,311.741638 139.596725,310.891052 150.401611,312.093933 
	C153.835388,312.476196 157.389404,312.018951 160.868027,311.713654 
	C171.951920,310.740814 178.167389,302.941986 184.539261,295.073212 
	C192.154099,285.669525 200.227615,276.636902 208.132904,267.469788 
	C208.527359,267.012390 209.211365,266.804657 210.521515,266.031708 
	C210.521515,267.986237 210.682617,269.360718 210.496246,270.686401 
	C208.877899,282.197601 210.472855,293.218323 215.401993,303.748474 
	C215.753448,304.499329 216.020096,305.498047 216.637314,305.884155 
	C223.004501,309.867371 222.236069,315.698517 220.999893,321.766174 
	C219.676590,328.261353 218.517868,334.790070 217.143646,341.652100 
	C177.979111,342.000000 138.958206,342.000000 99.468658,342.000000 
z"/>
<path fill="#00000000" opacity="1.000000" stroke="none" 
	d="
M221.468643,342.000000 
	C222.422241,329.295471 223.959442,316.602142 225.201752,303.880035 
	C225.613556,299.663025 225.266724,295.371918 225.266724,291.114685 
	C224.625137,291.087708 223.983536,291.060730 223.341949,291.033783 
	C223.341949,296.056885 223.341949,301.079987 223.341949,306.103088 
	C222.785095,306.315643 222.228241,306.528168 221.671387,306.740692 
	C220.366028,305.279633 218.548431,304.025726 217.857162,302.316345 
	C216.186478,298.184967 214.966919,293.862915 213.708130,289.575867 
	C212.691269,286.112671 214.604355,284.925629 217.687393,285.170746 
	C224.249237,285.692444 230.087357,287.634766 233.544846,293.869873 
	C237.974091,301.857361 242.410217,309.841034 247.159409,318.405090 
	C248.287506,321.639008 249.099579,324.294220 249.682007,327.230438 
	C248.301590,332.340973 247.150803,337.170502 246.000000,342.000000 
	C237.979095,342.000000 229.958191,342.000000 221.468643,342.000000 
z"/>
<path fill="#00000000" opacity="1.000000" stroke="none" 
	d="
M67.468658,342.000000 
	C66.879395,333.817139 70.331230,326.711487 74.668388,320.269073 
	C79.835571,312.593719 85.893684,305.512482 91.684479,298.268738 
	C92.537918,297.201141 94.045250,296.656250 96.239853,295.223175 
	C96.239853,301.581512 96.239853,306.923187 96.239853,312.264862 
	C95.874199,312.267365 95.508537,312.269836 95.142883,312.272339 
	C95.142883,310.374207 95.142883,308.476044 95.142883,306.577881 
	C94.689751,306.582581 94.236618,306.587250 93.783485,306.591949 
	C90.119316,318.148682 93.312027,329.658020 95.007408,341.588837 
	C85.979103,342.000000 76.958214,342.000000 67.468658,342.000000 
z"/>
<path fill="#00000000" opacity="1.000000" stroke="none" 
	d="
M287.000000,342.000000 
	C274.645782,342.000000 262.291534,342.000000 249.488770,341.585571 
	C249.744446,336.847961 250.448685,332.524841 251.422424,328.127441 
	C253.110214,328.399200 254.528488,328.745178 256.162903,329.352478 
	C262.052521,332.101929 267.680328,334.701904 273.414154,337.042145 
	C277.874298,338.862579 282.466492,340.359375 287.000000,342.000000 
z"/>
<path fill="#00000000" opacity="1.000000" stroke="none" 
	d="
M305.000000,340.000000 
	C305.511536,342.936401 303.303955,341.791534 301.193451,341.789917 
	C298.646942,341.065063 296.927795,340.448700 295.159454,340.051727 
	C282.113922,337.122864 268.888397,334.773468 256.886749,327.686188 
	C255.060272,326.500793 253.433304,325.568542 251.806335,324.636322 
	C252.318665,324.065155 252.830994,323.493988 253.343323,322.922791 
	C253.960556,323.004272 254.614639,322.980804 255.189621,323.182648 
	C267.986176,327.675201 280.757202,332.241241 293.574005,336.675018 
	C297.318024,337.970184 301.187836,338.901764 305.000000,340.000000 
z"/>
<path fill="#252528" opacity="1.000000" stroke="none" 
	d="
M305.000000,339.666687 
	C301.187836,338.901764 297.318024,337.970184 293.574005,336.675018 
	C280.757202,332.241241 267.986176,327.675201 255.189621,323.182648 
	C254.614639,322.980804 253.960556,323.004272 253.343323,322.922791 
	C252.830994,323.493988 252.318665,324.065155 251.806335,324.636322 
	C253.433304,325.568542 255.060272,326.500793 256.695984,327.877411 
	C256.452118,328.578247 256.199432,328.834717 255.946777,329.091156 
	C254.528488,328.745178 253.110214,328.399200 251.216217,327.917999 
	C250.464203,327.504974 250.187927,327.227203 249.911652,326.949402 
	C249.099579,324.294220 248.287506,321.639008 247.407959,318.606873 
	C247.635620,318.185516 247.930756,318.141083 248.669403,318.033203 
	C264.840271,323.652161 280.567078,329.336121 296.295532,335.015533 
	C298.948364,335.973450 301.608368,336.911652 304.632507,337.929474 
	C305.000000,338.444458 305.000000,338.888885 305.000000,339.666687 
z"/>
<path fill="#252528" opacity="1.000000" stroke="none" 
	d="
M256.162903,329.352478 
	C256.199432,328.834717 256.452118,328.578247 256.895508,328.130554 
	C268.888397,334.773468 282.113922,337.122864 295.159454,340.051727 
	C296.927795,340.448700 298.646942,341.065063 300.694427,341.789917 
	C296.643097,342.000000 292.286194,342.000000 287.464661,342.000000 
	C282.466492,340.359375 277.874298,338.862579 273.414154,337.042145 
	C267.680328,334.701904 262.052521,332.101929 256.162903,329.352478 
z"/>
<path fill="#00000000" opacity="1.000000" stroke="none" 
	d="
M44.468399,342.000000 
	C50.024986,339.566132 55.874889,336.168549 62.135422,335.031219 
	C66.438477,334.249451 64.358368,338.771881 64.056999,341.620300 
	C57.645603,342.000000 51.291203,342.000000 44.468399,342.000000 
z"/>
<path fill="#252528" opacity="1.000000" stroke="none" 
	d="
M249.682007,327.230438 
	C250.187927,327.227203 250.464203,327.504974 250.946701,327.992249 
	C250.448685,332.524841 249.744446,336.847961 249.020111,341.585571 
	C248.250000,342.000000 247.500000,342.000000 246.375000,342.000000 
	C247.150803,337.170502 248.301590,332.340973 249.682007,327.230438 
z"/>
<path fill="#252528" opacity="1.000000" stroke="none" 
	d="
M221.040649,108.954803 
	C220.829895,108.942589 220.741898,108.824760 220.653885,108.706940 
	C220.851837,108.627029 221.049789,108.547112 221.327240,108.551338 
	C221.406769,108.635483 221.163406,108.849190 221.040649,108.954803 
z"/>
<path fill="#00000000" opacity="1.000000" stroke="none" 
	d="
M166.056595,143.288467 
	C160.919785,144.013153 156.098923,145.315781 151.259918,145.387146 
	C144.914703,145.480698 138.560989,144.482895 132.200256,144.174576 
	C124.840034,143.817810 117.317398,142.672363 110.137680,143.725830 
	C100.021393,145.210175 90.306129,148.759659 81.498497,156.179581 
	C81.283066,153.755325 81.023689,152.187851 81.023476,150.620331 
	C81.021782,138.123016 79.439896,125.387703 87.375969,114.196701 
	C88.853333,112.113403 89.266541,109.251442 90.066032,106.715797 
	C92.879463,97.792862 102.105995,94.416862 110.449669,98.446693 
	C119.324097,102.732872 128.419235,102.871552 136.879547,96.780907 
	C139.175125,95.128319 141.420883,93.394028 143.813538,91.895241 
	C144.712326,91.332214 145.963379,91.331535 147.053833,91.074486 
	C147.639816,94.685349 148.549759,98.290993 148.608002,101.910339 
	C148.624756,102.952034 146.258362,104.144325 144.847153,105.054428 
	C144.007980,105.595604 142.900864,105.721268 141.914215,106.033752 
	C142.320663,107.200829 142.435699,108.617226 143.183975,109.491844 
	C146.437668,113.294945 153.901215,112.496651 156.994675,107.595886 
	C158.887589,104.597046 159.990387,100.943268 160.753113,97.432640 
	C161.468307,94.140808 163.170624,92.473396 166.211456,93.147835 
	C170.000671,93.988274 174.171051,94.790894 177.216949,96.958595 
	C183.940842,101.743835 190.875366,104.341484 199.264755,104.864120 
	C202.823318,105.085815 207.506363,109.040756 209.268967,112.519699 
	C216.720062,127.226303 219.040375,143.157257 217.865341,159.564499 
	C217.779922,160.757202 216.496368,162.853333 215.839066,162.826614 
	C214.015900,162.752548 211.159088,162.281631 210.595016,161.081726 
	C205.382736,149.993835 194.655975,146.655151 184.585678,143.365219 
	C179.093109,141.570786 172.474976,143.221619 166.056595,143.288467 
z"/>
<path fill="#00000000" opacity="1.000000" stroke="none" 
	d="
M82.017372,226.997284 
	C80.683159,221.430389 78.461258,215.905380 78.196213,210.288040 
	C77.612000,197.906662 78.014740,185.478729 78.014740,171.943970 
	C79.469002,178.001740 80.626755,182.959305 81.851463,187.900269 
	C85.316177,201.878311 97.952667,204.713226 109.583755,200.536438 
	C126.265175,194.546066 133.949890,180.781082 137.940414,164.651901 
	C139.046997,160.179291 140.890182,158.528427 145.242081,158.738251 
	C149.066223,158.922638 150.770462,160.441833 151.073456,164.484573 
	C152.286469,180.669800 166.679382,197.525238 182.371216,201.560333 
	C195.067993,204.825272 205.280823,199.089569 209.783554,185.777176 
	C211.045441,182.046326 211.140701,177.935150 212.120880,174.087524 
	C212.499954,172.599442 213.849426,171.358551 214.756805,170.005035 
	C216.394745,171.200378 218.759552,172.067551 219.485138,173.674774 
	C220.376022,175.648102 219.688477,178.274536 220.068604,180.554413 
	C220.462662,182.917862 221.376694,185.189957 221.950394,187.529694 
	C222.337494,189.108459 223.004318,190.822128 222.729385,192.326172 
	C221.152954,200.950287 219.374069,209.538513 217.577438,218.120819 
	C216.625290,222.669159 216.106750,226.906616 213.136902,231.340942 
	C209.626694,236.582092 205.454468,238.320801 200.322525,239.133316 
	C197.960236,239.507355 195.354477,238.324158 194.990509,234.795807 
	C193.480820,220.160217 189.580215,216.187210 174.955322,213.872772 
	C173.808121,213.691193 172.693100,213.253708 171.543610,213.148651 
	C167.897415,212.815399 167.742249,211.039780 168.824707,207.994812 
	C169.442184,206.257843 168.936417,204.121582 168.034149,201.744217 
	C168.651917,209.217560 162.391815,210.268021 158.291168,213.017349 
	C156.823547,214.001328 154.525818,213.928741 152.596054,213.988968 
	C150.795868,214.045135 148.902008,213.202454 147.187592,213.514603 
	C141.731750,214.507950 137.660706,213.247223 135.643097,207.651703 
	C135.483078,207.207901 135.112183,206.641907 134.716583,206.514938 
	C132.808807,205.902512 130.858994,205.421127 128.924088,204.893234 
	C128.641800,206.681107 128.359512,208.468979 128.094986,210.144363 
	C121.877930,208.086197 121.346977,203.592331 127.384834,198.005051 
	C120.986946,197.651794 119.337219,201.268036 121.824814,211.398682 
	C109.145287,214.125977 97.820915,218.685257 99.865776,234.996506 
	C89.575417,237.319626 88.055695,236.642456 82.167091,227.171509 
	C81.980064,226.971176 82.017372,226.997284 82.017372,226.997284 
M154.068634,208.658417 
	C155.216248,208.683350 156.540146,209.075089 157.462723,208.631744 
	C158.416946,208.173218 158.981552,206.903915 159.716583,205.989273 
	C158.006256,205.744247 156.158951,204.974167 154.617493,205.376358 
	C152.261993,205.990936 152.287125,206.529053 154.068634,208.658417 
M148.618011,211.039917 
	C148.618011,211.039917 148.492920,210.855560 148.492920,210.855560 
	C148.492920,210.855560 148.503265,211.088013 148.618011,211.039917 
z"/>
<path fill="#00000000" opacity="1.000000" stroke="none" 
	d="
M182.767868,198.365311 
	C165.814392,192.651825 157.656448,179.981232 154.215057,163.833008 
	C152.433044,155.471237 156.235153,151.310455 165.899887,150.698196 
	C170.758362,150.390411 175.726379,151.420227 180.614456,152.072968 
	C186.341049,152.837692 192.007294,154.181519 197.750732,154.654449 
	C202.675919,155.060013 206.079071,157.180145 207.610748,161.677322 
	C211.181778,172.162262 210.354324,182.520294 204.269684,191.744873 
	C199.331512,199.231323 191.739243,201.079285 182.767868,198.365311 
M187.981461,159.656067 
	C187.142441,160.222290 186.353195,161.176147 185.456268,161.291260 
	C180.011734,161.990067 174.523819,162.374191 169.101898,163.201172 
	C168.281204,163.326340 167.126694,165.283905 167.239273,166.266418 
	C167.333588,167.089584 169.008987,168.274857 170.059418,168.358643 
	C177.950058,168.988220 185.856171,169.514679 193.766327,169.705566 
	C194.882156,169.732483 196.412262,167.944427 197.045776,166.651184 
	C197.406219,165.915390 196.662582,163.991501 195.851044,163.450790 
	C193.459351,161.857285 190.785767,160.686859 187.981461,159.656067 
z"/>
<path fill="#00000000" opacity="1.000000" stroke="none" 
	d="
M84.741730,158.037048 
	C86.796242,156.146515 88.627350,154.554886 91.119186,152.388947 
	C91.245964,157.452271 93.632736,157.211273 96.699005,156.469177 
	C102.217262,155.133652 107.802032,154.053604 113.388428,153.026886 
	C116.316879,152.488647 119.347290,152.487061 122.263145,151.901794 
	C131.778320,149.991882 138.561020,156.860474 135.166534,166.084457 
	C132.453232,173.457458 128.214188,180.321274 124.209709,187.151550 
	C120.474663,193.522232 114.077934,196.513977 107.328484,198.728363 
	C97.352257,202.001404 88.814774,197.829514 85.512383,187.955963 
	C82.250504,178.203491 80.204063,168.364090 84.741730,158.037048 
M107.927559,162.015228 
	C106.238182,162.397491 104.548805,162.779739 102.859428,163.161987 
	C102.769531,162.931839 102.679642,162.701675 102.589745,162.471527 
	C104.560966,161.032135 106.532196,159.592743 108.503418,158.153351 
	C108.195686,157.698044 107.887962,157.242737 107.580231,156.787430 
	C105.147240,158.275116 102.224045,159.316269 100.380112,161.340530 
	C96.130142,166.006104 92.404396,171.149216 88.465965,176.098572 
	C88.701988,176.545456 88.938011,176.992340 89.174034,177.439224 
	C91.529427,176.353912 94.742714,175.891190 96.071159,174.060623 
	C99.382256,169.498047 103.319618,169.934784 107.999214,170.612778 
	C114.740593,171.589508 121.435188,171.259781 127.357704,166.931015 
	C123.110939,161.025360 117.934654,159.716095 107.927559,162.015228 
z"/>
<path fill="#00000000" opacity="1.000000" stroke="none" 
	d="
M111.977310,233.025589 
	C113.393600,231.775711 114.639870,229.752121 116.252930,229.397675 
	C129.846161,226.410522 143.567505,226.093201 157.319351,228.310654 
	C164.047638,229.395569 170.742905,230.690475 177.479645,231.716110 
	C182.067719,232.414627 183.672089,234.329315 183.306625,239.405289 
	C182.729843,247.416794 182.881729,255.456604 178.625015,262.609833 
	C176.862579,265.571533 174.741470,268.410583 172.347717,270.883606 
	C169.119034,274.219208 166.471542,273.649170 164.079651,269.511932 
	C163.251236,268.079041 162.930618,266.225494 161.824310,265.116455 
	C160.737762,264.027222 158.945419,263.041840 157.467285,263.048218 
	C151.347031,263.074554 145.199997,263.966919 139.119400,263.600891 
	C135.136002,263.361084 132.903290,264.504150 131.053040,267.807129 
	C126.440529,276.041260 124.764244,276.253998 118.824074,268.939667 
	C111.382217,259.776276 107.699966,249.293411 109.160255,237.376328 
	C109.338486,235.921799 110.572998,234.596695 111.642029,233.417114 
	C113.842758,237.540085 115.153046,241.876434 117.689247,245.306244 
	C132.689987,265.592316 164.141006,265.730377 178.759583,241.276169 
	C182.261734,235.417694 180.890274,233.092285 174.064819,233.035126 
	C163.299011,232.944962 152.532135,232.967255 141.765717,232.968338 
	C131.836243,232.969360 121.906776,233.005127 111.977310,233.025589 
z"/>
<path fill="#00000000" opacity="1.000000" stroke="none" 
	d="
M226.424896,212.002563 
	C228.593338,211.778763 230.517181,211.778763 231.634476,211.778763 
	C230.368103,207.116989 228.962402,201.942337 227.388840,196.149765 
	C226.886261,199.887253 226.455460,203.090836 226.024673,206.294434 
	C225.700836,206.262741 225.376999,206.231033 225.053162,206.199326 
	C225.053162,200.910400 224.818481,195.603165 225.228180,190.346176 
	C225.323395,189.124512 227.554199,187.272018 228.910217,187.171997 
	C230.244370,187.073563 232.550339,188.560699 232.963684,189.829697 
	C234.029465,193.101624 234.247330,196.644409 234.875381,200.065857 
	C235.404083,202.946075 235.805969,205.877884 236.664154,208.663574 
	C238.604416,214.961670 230.309906,228.788376 222.913803,230.274673 
	C223.402649,224.010757 222.497086,217.790573 226.424896,212.002563 
z"/>
<path fill="#00000000" opacity="1.000000" stroke="none" 
	d="
M127.922165,61.928310 
	C137.477234,56.533424 147.631561,54.384491 158.573898,55.983185 
	C163.888397,56.759644 167.784500,59.686279 171.058746,63.595802 
	C177.536896,71.330887 183.986649,79.093651 190.250977,87.001167 
	C191.825104,88.988220 192.652679,91.566681 193.823349,93.873352 
	C193.307968,94.215134 192.792587,94.556915 192.277206,94.898689 
	C190.210220,91.979752 187.727768,89.265564 186.166458,86.097420 
	C183.296585,80.273987 179.514175,75.772278 172.981583,74.123566 
	C172.501312,74.002350 171.797272,73.908630 171.619232,73.576149 
	C168.165665,67.127495 160.924698,66.849594 155.587433,63.501835 
	C146.785553,57.980915 138.166870,57.674519 128.618607,62.165405 
	C128.151657,62.153236 127.922165,61.928310 127.922165,61.928310 
z"/>
<path fill="#00000000" opacity="1.000000" stroke="none" 
	d="
M109.988464,80.951607 
	C117.553375,79.698242 124.336288,77.723267 129.055176,71.610176 
	C129.356094,71.220352 129.722092,70.709267 130.142273,70.609177 
	C135.000488,69.451897 139.875000,68.363075 144.665863,67.274101 
	C140.511826,75.096359 135.743011,82.071190 127.414665,86.444107 
	C126.943100,84.530388 126.546776,82.922043 125.914711,80.357010 
	C118.168350,88.021873 110.612251,86.195808 103.087631,82.016228 
	C103.090263,81.536407 103.092888,81.056587 103.095520,80.576767 
	C105.254921,80.704147 107.414330,80.831520 109.988464,80.951607 
z"/>
<path fill="#00000000" opacity="1.000000" stroke="none" 
	d="
M106.986786,75.991913 
	C106.437546,75.182777 105.888298,74.373642 105.317978,73.533463 
	C101.352951,78.181633 99.542053,77.859581 97.833954,73.293037 
	C104.644852,68.923225 111.210091,64.676895 117.810936,60.486675 
	C123.205551,57.062172 129.161804,55.594254 136.002426,54.934910 
	C131.275787,58.022015 127.204865,60.680855 123.062233,63.664513 
	C122.990524,63.989334 123.012268,63.961983 123.012268,63.961983 
	C122.528839,64.027756 121.708488,63.950531 121.611061,64.180122 
	C118.884438,70.604889 110.438545,69.696060 107.090874,75.734024 
	C106.963760,76.026985 106.986786,75.991913 106.986786,75.991913 
z"/>
<path fill="#00000000" opacity="1.000000" stroke="none" 
	d="
M167.961823,80.794083 
	C167.638382,80.422020 167.434769,79.902596 167.478516,79.880859 
	C172.157547,77.555519 181.405090,80.454521 183.395111,85.155922 
	C185.849808,90.955048 188.327179,96.391350 195.597687,97.475403 
	C197.259918,97.723259 198.733734,99.234734 201.050079,100.615021 
	C194.067947,103.600868 186.438461,101.504181 183.977631,97.304413 
	C182.218597,94.302361 180.535309,91.239075 179.068497,88.086639 
	C176.887421,83.399094 173.457779,80.814003 167.961823,80.794083 
z"/>
<path fill="#00000000" opacity="1.000000" stroke="none" 
	d="
M185.265228,75.760956 
	C180.108917,70.164024 175.205490,64.815376 170.186310,59.340446 
	C177.716553,56.870499 188.997345,66.926392 192.938782,80.759911 
	C190.465225,79.176353 187.991669,77.592804 185.265228,75.760956 
z"/>
<path fill="#00000000" opacity="1.000000" stroke="none" 
	d="
M74.213226,109.490829 
	C71.128540,110.770058 68.115570,112.737854 65.700905,109.056694 
	C63.213078,105.263992 63.286160,100.948624 66.463806,98.183342 
	C68.230934,96.645523 72.061020,97.228798 74.928436,97.401802 
	C75.549988,97.439316 76.610649,99.886757 76.458519,101.097183 
	C76.112984,103.846436 75.139114,106.516716 74.213226,109.490829 
z"/>
<path fill="#00000000" opacity="1.000000" stroke="none" 
	d="
M72.704178,155.405914 
	C69.060440,156.727783 69.405945,155.007721 69.715294,152.531815 
	C70.088531,149.544479 69.920380,146.464874 69.746254,143.439041 
	C69.416565,137.709885 74.125008,135.964157 77.673836,133.083679 
	C77.387634,140.824249 80.180077,149.068649 72.704178,155.405914 
z"/>
<path fill="#00000000" opacity="1.000000" stroke="none" 
	d="
M70.304337,135.328857 
	C69.207474,136.803604 68.340866,138.009216 67.495422,139.229492 
	C64.749535,143.192780 61.608353,143.325623 58.604507,139.430069 
	C56.995041,137.342834 56.861183,136.216721 59.359592,133.578644 
	C64.754066,127.882660 71.443336,131.292465 77.507950,129.663071 
	C75.186729,131.464188 72.865509,133.265320 70.304337,135.328857 
z"/>
<path fill="#00000000" opacity="1.000000" stroke="none" 
	d="
M147.264526,156.116745 
	C142.292542,156.748108 137.489395,157.846649 134.979355,152.267624 
	C134.545700,151.303772 134.472260,149.517929 135.063110,148.874237 
	C136.993042,146.771698 148.270569,148.106140 150.163391,150.583496 
	C150.945618,151.607315 151.973969,153.634109 151.571793,154.125427 
	C150.718048,155.168442 148.999573,155.503632 147.264526,156.116745 
z"/>
<path fill="#00000000" opacity="1.000000" stroke="none" 
	d="
M87.743744,92.223495 
	C80.999718,93.796455 74.833450,93.367645 69.041687,88.868752 
	C72.035316,85.443275 76.034874,82.349854 79.927933,83.629593 
	C83.182327,84.699394 85.341347,89.101357 87.743744,92.223495 
z"/>
<path fill="#00000000" opacity="1.000000" stroke="none" 
	d="
M60.547874,153.501709 
	C58.265717,155.660614 56.252617,157.586655 53.649807,160.076904 
	C53.649807,157.886734 53.595039,156.050507 53.664337,154.218979 
	C53.742443,152.154633 54.372070,150.005920 53.978565,148.051636 
	C53.242805,144.397507 55.332249,143.110565 58.015438,143.543030 
	C61.623230,144.124512 65.071480,145.695877 68.827293,146.920303 
	C65.698021,149.400391 63.257477,151.334625 60.547874,153.501709 
z"/>
<path fill="#00000000" opacity="1.000000" stroke="none" 
	d="
M64.981216,192.014954 
	C66.914520,191.931229 68.865257,191.830414 71.332413,191.787689 
	C71.848831,191.845764 72.061821,192.089615 72.061821,192.089615 
	C71.032547,198.709671 70.003273,205.329712 68.830338,212.873734 
	C62.998661,206.206726 63.923183,199.527725 65.015228,192.393188 
	C65.033134,191.963318 64.998642,191.997879 64.981216,192.014954 
z"/>
<path fill="#00000000" opacity="1.000000" stroke="none" 
	d="
M222.810944,178.386078 
	C221.743149,173.970764 223.371063,172.423737 227.117584,174.020615 
	C229.751099,175.143112 234.542847,174.186386 233.869156,179.324402 
	C233.359848,183.208862 230.438553,183.977997 226.917084,184.057449 
	C222.829956,184.149643 223.021988,181.431030 222.810944,178.386078 
z"/>
<path fill="#00000000" opacity="1.000000" stroke="none" 
	d="
M205.397125,82.038017 
	C201.252747,75.771484 197.288300,69.750549 193.445343,63.914124 
	C200.738785,63.927353 206.997864,72.697670 207.279694,84.447037 
	C206.516159,83.476852 206.046631,82.880234 205.397125,82.038017 
z"/>
<path fill="#00000000" opacity="1.000000" stroke="none" 
	d="
M240.213409,180.858978 
	C239.511383,187.035767 238.915436,192.853989 238.319473,198.672195 
	C236.051529,190.920547 232.414322,183.105499 240.319473,175.946487 
	C240.319473,177.464462 240.319473,178.982422 240.213409,180.858978 
z"/>
<path fill="#00000000" opacity="1.000000" stroke="none" 
	d="
M70.749908,220.059387 
	C71.549126,218.176865 72.213913,216.605469 73.250938,214.154190 
	C77.606392,221.044861 74.166344,227.683716 74.800537,234.531372 
	C71.450203,232.077866 71.450203,232.077866 70.749908,220.059387 
z"/>
<path fill="#00000000" opacity="1.000000" stroke="none" 
	d="
M251.001755,162.087799 
	C252.255554,163.118393 253.854431,163.916840 253.984924,164.908508 
	C254.190903,166.473801 253.411163,168.168793 253.048645,169.808899 
	C251.683670,169.356689 249.687637,169.315338 249.074463,168.373611 
	C247.375259,165.763901 246.252258,162.779022 244.901520,159.942429 
	C245.365997,159.585999 245.830460,159.229568 246.294937,158.873154 
	C247.759384,159.896210 249.223831,160.919266 251.001755,162.087799 
z"/>
<path fill="#00000000" opacity="1.000000" stroke="none" 
	d="
M106.950424,76.043869 
	C112.346985,73.117401 118.030113,71.715233 124.591103,74.024536 
	C120.194748,75.612579 115.857063,77.418472 111.359238,78.629662 
	C110.285828,78.918724 108.677963,77.223053 107.151352,76.216080 
	C106.986786,75.991913 106.963760,76.026985 106.950424,76.043869 
z"/>
<path fill="#00000000" opacity="1.000000" stroke="none" 
	d="
M70.384827,113.520157 
	C72.854225,112.916351 75.164413,112.891373 74.762276,115.818893 
	C74.486977,117.823067 73.200531,119.881935 71.816071,121.421829 
	C71.402466,121.881882 68.407013,121.097031 67.850937,120.147057 
	C66.299896,117.497337 67.065567,115.056061 70.384827,113.520157 
z"/>
<path fill="#00000000" opacity="1.000000" stroke="none" 
	d="
M222.915985,139.156769 
	C222.580841,135.517075 222.265152,132.322205 221.835678,127.975639 
	C226.679337,133.967621 226.331406,142.722488 221.417496,153.294739 
	C221.983109,148.192368 222.459274,143.896988 222.915985,139.156769 
z"/>
<path fill="#00000000" opacity="1.000000" stroke="none" 
	d="
M244.452057,177.115051 
	C244.224396,174.431213 243.908447,172.065674 243.565613,169.498795 
	C250.543152,172.509155 251.464142,174.935211 247.524673,179.502625 
	C246.899170,180.227814 245.673309,180.435211 244.725006,180.881989 
	C244.604599,179.732452 244.484192,178.582901 244.452057,177.115051 
z"/>
<path fill="#00000000" opacity="1.000000" stroke="none" 
	d="
M218.401871,75.637947 
	C222.485596,79.085205 224.527939,83.507042 225.234833,89.198524 
	C217.435257,87.643410 219.699341,81.156113 218.096344,76.354813 
	C218.161743,75.849747 218.401871,75.637947 218.401871,75.637947 
z"/>
<path fill="#00000000" opacity="1.000000" stroke="none" 
	d="
M82.990273,74.006157 
	C87.693398,74.500488 90.510490,77.039642 91.917747,81.698608 
	C84.877182,82.175636 81.776108,79.532501 82.993088,74.280746 
	C83.033867,73.966461 83.004852,73.993195 82.990273,74.006157 
z"/>
<path fill="#00000000" opacity="1.000000" stroke="none" 
	d="
M190.437012,68.676559 
	C189.435654,67.056862 188.635452,65.717194 187.835236,64.377525 
	C194.159805,67.355209 196.997452,72.667351 197.665649,79.486298 
	C195.323151,75.976395 192.980637,72.466492 190.437012,68.676559 
z"/>
<path fill="#00000000" opacity="1.000000" stroke="none" 
	d="
M64.505630,331.940735 
	C59.226265,333.519989 54.242031,335.026611 49.257793,336.533264 
	C49.141293,336.204681 49.024796,335.876068 48.908295,335.547485 
	C54.386066,333.128174 59.863834,330.708862 65.341606,328.289551 
	C65.636330,328.648682 65.931053,329.007812 66.225777,329.366974 
	C65.750771,330.200684 65.275764,331.034393 64.505630,331.940735 
z"/>
<path fill="#00000000" opacity="1.000000" stroke="none" 
	d="
M165.781311,73.129799 
	C165.154053,73.495193 164.304245,73.966927 163.959457,73.723465 
	C158.659103,69.980751 153.077179,70.610825 146.544724,73.406898 
	C151.599487,67.871162 158.452530,68.026215 165.781311,73.129799 
z"/>
<path fill="#00000000" opacity="1.000000" stroke="none" 
	d="
M65.691452,189.036285 
	C67.212151,186.847473 68.910400,184.796570 70.608658,182.745682 
	C70.963455,182.782257 71.318260,182.818848 71.673065,182.855438 
	C71.515823,184.571838 71.975815,186.903168 71.039299,187.843201 
	C69.958954,188.927567 67.646446,188.784363 65.691452,189.036285 
z"/>
<path fill="#00000000" opacity="1.000000" stroke="none" 
	d="
M71.743515,191.722839 
	C73.721375,189.482162 75.522530,189.326614 75.806297,192.742157 
	C76.032661,195.466919 75.558014,198.249908 74.379402,200.898453 
	C73.758377,198.073700 73.137360,195.248962 72.289078,192.256912 
	C72.061821,192.089615 71.848831,191.845764 71.743515,191.722839 
z"/>
<path fill="#00000000" opacity="1.000000" stroke="none" 
	d="
M61.058636,121.917183 
	C64.662056,122.881165 68.265480,123.845154 71.869354,124.807632 
	C67.399048,127.581482 64.812737,127.148521 60.886765,122.568848 
	C60.849316,122.163902 61.058636,121.917183 61.058636,121.917183 
z"/>
<path fill="#00000000" opacity="1.000000" stroke="none" 
	d="
M136.061432,65.929634 
	C137.010193,65.313240 137.915955,64.870445 138.821732,64.427650 
	C138.929642,64.763451 139.037552,65.099243 139.145462,65.435043 
	C138.103134,65.657776 137.060791,65.880508 136.061432,65.929634 
z"/>
<path fill="#00000000" opacity="1.000000" stroke="none" 
	d="
M122.976807,64.000107 
	C123.244675,64.153725 123.536797,64.280716 123.797821,64.454445 
	C123.843193,64.484642 123.757271,64.712128 123.731995,64.848495 
	C123.530006,64.657875 123.328026,64.467255 123.069153,64.119308 
	C123.012268,63.961983 122.990524,63.989334 122.976807,64.000107 
z"/>
<path fill="#00000000" opacity="1.000000" stroke="none" 
	d="
M128.265320,62.266788 
	C128.027008,62.585182 127.675018,62.790020 127.323029,62.994858 
	C127.419830,62.687492 127.516632,62.380131 127.767799,62.000542 
	C127.922165,61.928310 128.151657,62.153236 128.265320,62.266788 
z"/>
<path fill="#00000000" opacity="1.000000" stroke="none" 
	d="
M81.962044,226.957031 
	C81.949989,227.234528 81.977028,227.528549 81.944733,227.815903 
	C81.938011,227.875763 81.711769,227.910950 81.586700,227.957504 
	C81.651794,227.707428 81.716888,227.457367 81.899681,227.102295 
	C82.017372,226.997284 81.980064,226.971176 81.962044,226.957031 
z"/>
<path fill="#00000000" opacity="1.000000" stroke="none" 
	d="
M218.040665,75.954498 
	C217.831604,75.943214 217.743607,75.827187 217.655609,75.711166 
	C217.851303,75.631508 218.047012,75.551849 218.322296,75.555069 
	C218.401871,75.637947 218.161743,75.849747 218.040665,75.954498 
z"/>
<path fill="#00000000" opacity="1.000000" stroke="none" 
	d="
M60.743454,122.286224 
	C60.583496,122.160126 60.529404,121.911697 60.475311,121.663269 
	C60.614906,121.695381 60.754501,121.727486 60.976364,121.838387 
	C61.058636,121.917183 60.849316,122.163902 60.743454,122.286224 
z"/>
<path fill="#252528" opacity="1.000000" stroke="none" 
	d="
M153.787506,208.583160 
	C152.287125,206.529053 152.261993,205.990936 154.617493,205.376358 
	C156.158951,204.974167 158.006256,205.744247 159.716583,205.989273 
	C158.981552,206.903915 158.416946,208.173218 157.462723,208.631744 
	C156.540146,209.075089 155.216248,208.683350 153.787506,208.583160 
z"/>
<path fill="#252528" opacity="1.000000" stroke="none" 
	d="
M148.560638,211.063965 
	C148.503265,211.088013 148.492920,210.855560 148.492920,210.855560 
	C148.492920,210.855560 148.618011,211.039917 148.560638,211.063965 
z"/>
<path fill="#252528" opacity="1.000000" stroke="none" 
	d="
M188.101990,159.503448 
	C190.785767,160.686859 193.459351,161.857285 195.851044,163.450790 
	C196.662582,163.991501 197.406219,165.915390 197.045776,166.651184 
	C196.412262,167.944427 194.882156,169.732483 193.766327,169.705566 
	C185.856171,169.514679 177.950058,168.988220 170.059418,168.358643 
	C169.008987,168.274857 167.333588,167.089584 167.239273,166.266418 
	C167.126694,165.283905 168.281204,163.326340 169.101898,163.201172 
	C174.523819,162.374191 180.011734,161.990067 185.456268,161.291260 
	C186.353195,161.176147 187.142441,160.222290 188.101990,159.503448 
M191.534241,163.686096 
	C191.500259,163.575775 191.466263,163.465469 191.432281,163.355148 
	C191.417984,163.449478 191.403687,163.543793 191.534241,163.686096 
M194.041336,165.380020 
	C194.041336,165.380020 193.854584,165.506989 193.854584,165.506989 
	C193.854584,165.506989 194.090332,165.496231 194.041336,165.380020 
z"/>
<path fill="#252528" opacity="1.000000" stroke="none" 
	d="
M108.317108,161.939331 
	C117.934654,159.716095 123.110939,161.025360 127.357704,166.931015 
	C121.435188,171.259781 114.740593,171.589508 107.999214,170.612778 
	C103.319618,169.934784 99.382256,169.498047 96.071159,174.060623 
	C94.742714,175.891190 91.529427,176.353912 89.174034,177.439224 
	C88.938011,176.992340 88.701988,176.545456 88.465965,176.098572 
	C92.404396,171.149216 96.130142,166.006104 100.380112,161.340530 
	C102.224045,159.316269 105.147240,158.275116 107.580231,156.787430 
	C107.887962,157.242737 108.195686,157.698044 108.503418,158.153351 
	C106.532196,159.592743 104.560966,161.032135 102.589745,162.471527 
	C102.679642,162.701675 102.769531,162.931839 102.859428,163.161987 
	C104.548805,162.779739 106.238182,162.397491 108.317108,161.939331 
z"/>
<path fill="#252528" opacity="1.000000" stroke="none" 
	d="
M111.991226,233.011581 
	C121.906776,233.005127 131.836243,232.969360 141.765717,232.968338 
	C152.532135,232.967255 163.299011,232.944962 174.064819,233.035126 
	C180.890274,233.092285 182.261734,235.417694 178.759583,241.276169 
	C164.141006,265.730377 132.689987,265.592316 117.689247,245.306244 
	C115.153046,241.876434 113.842758,237.540085 112.000137,233.296600 
	C112.034210,232.970596 112.005157,232.997574 111.991226,233.011581 
M155.325516,235.605240 
	C156.039352,237.749374 156.651718,239.935562 157.514252,242.018112 
	C157.888016,242.920547 158.777405,243.609421 159.432602,244.395294 
	C160.217941,243.506393 161.468094,242.726303 161.706207,241.709290 
	C162.620697,237.803513 160.150635,235.441849 154.339569,234.623672 
	C141.313477,236.310913 127.978050,231.643890 114.469826,235.592194 
	C118.003563,240.805603 118.003563,240.805603 123.313828,234.702225 
	C124.326660,238.050659 125.137001,240.729660 126.236641,244.365097 
	C127.818069,241.077637 128.951492,238.721481 130.084930,236.365326 
	C130.914017,238.152542 130.559250,239.619568 130.709427,241.032898 
	C130.828781,242.155960 131.565750,243.213379 132.028503,244.299927 
	C132.960938,243.564026 134.211517,243.006805 134.749359,242.049255 
	C135.507309,240.699829 135.737320,239.053848 136.041336,238.040390 
	C137.546509,240.563477 139.035919,243.060150 140.525330,245.556808 
	C142.422424,243.705826 144.319519,241.854843 146.342957,239.880585 
	C146.488510,240.251389 146.860733,240.805893 146.907593,241.386642 
	C147.118057,243.995590 148.094833,246.581207 150.980301,245.561600 
	C152.677277,244.961960 153.954895,242.305313 154.751251,240.306915 
	C155.370453,238.753067 154.954025,236.786530 155.325516,235.605240 
M129.555862,253.023911 
	C146.328247,263.835419 171.382019,254.647415 174.406357,241.304214 
	C158.086487,253.068237 140.036255,248.941757 121.622810,247.193298 
	C124.068474,248.996185 126.514137,250.799088 129.555862,253.023911 
M165.166382,235.255417 
	C161.924576,237.993164 164.305359,240.242203 165.605469,243.669464 
	C167.439484,240.148849 169.402176,237.728821 165.166382,235.255417 
M178.378281,236.957535 
	C178.378281,236.957535 178.507614,237.147125 178.507614,237.147125 
	C178.507614,237.147125 178.496323,236.907486 178.378281,236.957535 
z"/>
<path fill="#00000000" opacity="1.000000" stroke="none" 
	d="
M191.461823,163.662109 
	C191.403687,163.543793 191.417984,163.449478 191.432281,163.355148 
	C191.466263,163.465469 191.500259,163.575775 191.461823,163.662109 
z"/>
<path fill="#00000000" opacity="1.000000" stroke="none" 
	d="
M194.065826,165.438126 
	C194.090332,165.496231 193.854584,165.506989 193.854584,165.506989 
	C193.854584,165.506989 194.041336,165.380020 194.065826,165.438126 
z"/>
<path fill="#00000000" opacity="1.000000" stroke="none" 
	d="
M129.257843,252.812943 
	C126.514137,250.799088 124.068474,248.996185 121.622810,247.193298 
	C140.036255,248.941757 158.086487,253.068237 174.406357,241.304214 
	C171.382019,254.647415 146.328247,263.835419 129.257843,252.812943 
z"/>
<path fill="#00000000" opacity="1.000000" stroke="none" 
	d="
M154.997894,235.003418 
	C154.954025,236.786530 155.370453,238.753067 154.751251,240.306915 
	C153.954895,242.305313 152.677277,244.961960 150.980301,245.561600 
	C148.094833,246.581207 147.118057,243.995590 146.907593,241.386642 
	C146.860733,240.805893 146.488510,240.251389 146.342957,239.880585 
	C144.319519,241.854843 142.422424,243.705826 140.525330,245.556808 
	C139.035919,243.060150 137.546509,240.563477 136.041336,238.040390 
	C135.737320,239.053848 135.507309,240.699829 134.749359,242.049255 
	C134.211517,243.006805 132.960938,243.564026 132.028503,244.299927 
	C131.565750,243.213379 130.828781,242.155960 130.709427,241.032898 
	C130.559250,239.619568 130.914017,238.152542 130.084930,236.365326 
	C128.951492,238.721481 127.818069,241.077637 126.236641,244.365097 
	C125.137001,240.729660 124.326660,238.050659 123.313828,234.702225 
	C118.003563,240.805603 118.003563,240.805603 114.469826,235.592194 
	C127.978050,231.643890 141.313477,236.310913 154.670044,234.811584 
	C155.000519,234.999481 154.997894,235.003418 154.997894,235.003418 
z"/>
<path fill="#00000000" opacity="1.000000" stroke="none" 
	d="
M155.003922,234.996033 
	C160.150635,235.441849 162.620697,237.803513 161.706207,241.709290 
	C161.468094,242.726303 160.217941,243.506393 159.432602,244.395294 
	C158.777405,243.609421 157.888016,242.920547 157.514252,242.018112 
	C156.651718,239.935562 156.039352,237.749374 155.161713,235.304321 
	C154.997894,235.003418 155.000519,234.999481 155.003922,234.996033 
z"/>
<path fill="#00000000" opacity="1.000000" stroke="none" 
	d="
M165.475647,235.288666 
	C169.402176,237.728821 167.439484,240.148849 165.605469,243.669464 
	C164.305359,240.242203 161.924576,237.993164 165.475647,235.288666 
z"/>
<path fill="#00000000" opacity="1.000000" stroke="none" 
	d="
M178.437302,236.932510 
	C178.496323,236.907486 178.507614,237.147125 178.507614,237.147125 
	C178.507614,237.147125 178.378281,236.957535 178.437302,236.932510 
z"/>
</svg>